<?xml version="1.0" encoding="UTF-8" standalone="no"?>
<svg
   class="fill-white"
   width="24"
   height="24"
   stroke-width="1.5"
   viewBox="0 0 24 24"
   fill="none"
   version="1.1"
   id="svg4"
   sodipodi:docname="add-media-image.svg"
   inkscape:version="1.4.3 (0d15f75042, 2025-12-25)"
   xmlns:inkscape="http://www.inkscape.org/namespaces/inkscape"
   xmlns:sodipodi="http://sodipodi.sourceforge.net/DTD/sodipodi-0.dtd"
   xmlns="http://www.w3.org/2000/svg"
   xmlns:svg="http://www.w3.org/2000/svg">
  <defs
     id="defs4" />
  <sodipodi:namedview
     id="namedview4"
     pagecolor="#ffffff"
     bordercolor="#000000"
     borderopacity="0.25"
     inkscape:showpageshadow="2"
     inkscape:pageopacity="0.0"
     inkscape:pagecheckerboard="0"
     inkscape:deskcolor="#d1d1d1"
     inkscape:zoom="48.541667"
     inkscape:cx="11.9897"
     inkscape:cy="12"
     inkscape:window-width="2560"
     inkscape:window-height="1374"
     inkscape:window-x="0"
     inkscape:window-y="0"
     inkscape:window-maximized="1"
     inkscape:current-layer="svg4" />
  <path
     d="M13 21H3.6C3.26863 21 3 20.7314 3 20.4V3.6C3 3.26863 3.26863 3 3.6 3H20.4C20.7314 3 21 3.26863 21 3.6V13"
     stroke="currentColor"
     stroke-linecap="round"
     stroke-linejoin="round"
     id="path1"
     style="stroke:#ff76c8;stroke-opacity:1" />
  <path
     d="M3 16L10 13L15.5 15.5"
     stroke="currentColor"
     stroke-linecap="round"
     stroke-linejoin="round"
     id="path2"
     style="stroke:#ff76c8;stroke-opacity:1" />
  <path
     d="M16 10C14.8954 10 14 9.10457 14 8C14 6.89543 14.8954 6 16 6C17.1046 6 18 6.89543 18 8C18 9.10457 17.1046 10 16 10Z"
     stroke="currentColor"
     stroke-linecap="round"
     stroke-linejoin="round"
     id="path3"
     style="stroke:#ff76c8;stroke-opacity:1" />
  <path
     d="M16 19H19M22 19H19M19 19V16M19 19V22"
     stroke="currentColor"
     stroke-linecap="round"
     stroke-linejoin="round"
     id="path4"
     style="stroke:#ff76c8;stroke-opacity:1" />
</svg>
