<?xml version="1.0" encoding="UTF-8" standalone="no"?>
<svg
   fill="none"
   viewBox="0 0 30 30"
   data-v-22af5afe=""
   version="1.1"
   id="svg1"
   sodipodi:docname="logo.svg"
   xml:space="preserve"
   width="30"
   height="30"
   inkscape:version="1.4.3 (0d15f75042, 2025-12-25)"
   xmlns:inkscape="http://www.inkscape.org/namespaces/inkscape"
   xmlns:sodipodi="http://sodipodi.sourceforge.net/DTD/sodipodi-0.dtd"
   xmlns="http://www.w3.org/2000/svg"
   xmlns:svg="http://www.w3.org/2000/svg"><defs
     id="defs1" /><sodipodi:namedview
     id="namedview1"
     pagecolor="#ffffff"
     bordercolor="#000000"
     borderopacity="0.25"
     inkscape:showpageshadow="2"
     inkscape:pageopacity="0.0"
     inkscape:pagecheckerboard="0"
     inkscape:deskcolor="#d1d1d1"
     inkscape:zoom="11.992248"
     inkscape:cx="48.739819"
     inkscape:cy="5.7954105"
     inkscape:window-width="2560"
     inkscape:window-height="1374"
     inkscape:window-x="0"
     inkscape:window-y="0"
     inkscape:window-maximized="1"
     inkscape:current-layer="svg1" /><path
     style="fill:#ff76c8;fill-opacity:1;stroke-width:0.0349419"
     d="M 13.62025,28.351084 C 11.564053,28.117121 9.6824553,27.456544 7.9701057,26.36747 5.3011892,24.670014 3.2836545,21.969 2.4179461,18.934412 1.2489533,14.836708 2.1321907,10.435241 4.7893308,7.1170484 5.5084255,6.2190488 6.5250513,5.2592238 7.4332441,4.6208527 7.6323101,4.4809301 7.7536224,4.3595769 7.9110514,4.1428983 8.2872755,3.625074 8.8084413,3.204344 9.2398771,3.0701518 9.5267711,2.9809248 9.7774773,2.9431134 10.39857,2.8954199 c 0.384268,-0.029507 0.603724,-0.066898 0.908489,-0.1547962 0.221008,-0.063744 0.456866,-0.127504 0.524131,-0.1416944 0.06726,-0.014115 0.185191,-0.061717 0.262063,-0.1055951 0.201749,-0.1151905 0.822599,-0.3768537 1.188026,-0.5006966 0.978332,-0.3315583 1.82935,-0.4405518 2.785571,-0.3567574 1.094254,0.095894 1.960777,0.4154578 2.790572,1.0291376 0.164948,0.1219929 0.361498,0.2415187 0.436773,0.2656215 0.07527,0.024102 0.309828,0.1112712 0.521227,0.193705 0.211399,0.08244 0.557325,0.1832132 0.768723,0.2239511 0.627138,0.1208517 1.053527,0.3616435 1.386636,0.7830598 0.07585,0.095955 0.266603,0.2623419 0.423896,0.3697404 2.617917,1.787518 4.512477,4.5006513 5.296357,7.5847204 0.442832,1.742269 0.518076,3.690147 0.211519,5.475743 -0.698442,4.068183 -3.343361,7.626141 -7.04213,9.473103 -1.330649,0.664453 -2.623781,1.061031 -4.189776,1.28492 -0.545355,0.07797 -2.467554,0.09782 -3.050397,0.03151 z m -3.29e-4,-2.150091 c 0.03246,-0.03908 0.08349,-0.155157 0.113374,-0.257967 0.04792,-0.164857 0.06662,-0.188725 0.158296,-0.202181 0.170053,-0.02496 0.293155,0.05413 0.470014,0.301979 0.210664,0.29522 0.282479,0.298325 0.282479,0.01216 0,-0.109078 0.01617,-0.21456 0.03592,-0.234396 0.02086,-0.02093 0.380032,-0.04845 0.856078,-0.06562 0.520949,-0.01877 0.848832,-0.04499 0.89877,-0.07188 0.06107,-0.03287 0.07862,-0.07305 0.07862,-0.179994 0,-0.112201 -0.04298,-0.20087 -0.232229,-0.479223 -0.372945,-0.548507 -0.458273,-0.78548 -0.351781,-0.976996 0.02335,-0.04201 0.153316,-0.199244 0.288799,-0.349419 0.389014,-0.431201 0.636695,-0.732886 0.696265,-0.848081 0.05129,-0.0992 0.05083,-0.106317 -0.007,-0.106196 -0.08223,1.8e-4 -0.247109,0.102532 -0.586176,0.363921 -0.362023,0.279085 -0.98882,0.730319 -1.100669,0.792382 -0.04805,0.02665 -0.204183,0.05646 -0.346974,0.06624 l -0.259617,0.01777 -0.0775,0.370455 c -0.04262,0.203751 -0.103583,0.420892 -0.135448,0.482539 -0.09627,0.186168 -0.290762,0.376251 -0.525446,0.513536 -0.216987,0.126933 -0.260845,0.18628 -0.261865,0.354362 -3.28e-4,0.06359 -0.0201,0.07862 -0.103238,0.07862 -0.130071,0 -0.139531,0.01716 -0.166047,0.301062 l -0.02185,0.234028 0.119125,-0.02307 c 0.06552,-0.01261 0.145689,-0.05502 0.178163,-0.09409 z m 1.126186,-0.782613 c -0.09764,-0.04945 -0.211268,-0.125837 -0.252522,-0.169751 -0.0729,-0.0776 -0.07332,-0.08324 -0.01472,-0.200746 0.07669,-0.153643 0.252944,-0.219124 0.477115,-0.177245 0.116242,0.02171 0.183352,0.01542 0.266803,-0.02498 0.103807,-0.05027 0.114799,-0.04948 0.15947,0.01156 0.02638,0.03609 0.04798,0.140973 0.04798,0.233085 0,0.35663 -0.322462,0.511237 -0.684173,0.328035 z m -1.551248,0.554583 c 0.06577,-0.172981 0.04275,-0.288451 -0.06902,-0.346247 -0.222453,-0.11504 -0.392087,-0.02353 -0.39951,0.215508 -0.0049,0.158524 0.09783,0.2087 0.149443,0.07296 0.01727,-0.04542 0.05471,-0.10193 0.08319,-0.125581 0.04277,-0.0355 0.05549,-0.02916 0.07305,0.03638 0.01171,0.04364 0.02148,0.11474 0.02174,0.157975 6.58e-4,0.108389 0.09863,0.10073 0.14111,-0.01096 z m -0.420168,-0.677938 c 0.237563,-0.121332 0.548729,-0.381992 0.82087,-0.687644 0.134382,-0.150928 0.350585,-0.387592 0.480452,-0.52592 0.129862,-0.138331 0.236122,-0.282707 0.236122,-0.320841 0,-0.04392 -0.112023,-0.165214 -0.305741,-0.331022 -0.338217,-0.289481 -1.242116,-1.198521 -1.664134,-1.673599 -0.149383,-0.168158 -0.282222,-0.305334 -0.295208,-0.304834 -0.01291,4.92e-4 -0.112383,0.123719 -0.220869,0.273815 -0.197941,0.27386 -0.352489,0.389174 -0.521584,0.389174 -0.110686,0 -0.207122,-0.09795 -0.207122,-0.210355 0,-0.107473 0.05487,-0.186663 0.390704,-0.563966 0.131033,-0.14722 0.23825,-0.275623 0.23825,-0.285356 0,-0.0098 -0.214377,-0.274519 -0.476395,-0.588415 -0.484777,-0.58076 -0.686759,-0.857797 -0.72818,-0.99876 -0.06582,-0.223965 0.141604,-0.0042 0.750985,0.795795 0.44947,0.590044 0.543872,0.692947 0.589873,0.642987 0.01638,-0.01781 0.277929,-0.315399 0.58119,-0.661324 0.544502,-0.621102 0.550054,-0.629089 0.444631,-0.639641 -0.05871,-0.0059 -0.165306,0.01381 -0.236866,0.04368 -0.193747,0.08095 -0.226399,0.07154 -0.226399,-0.06524 0,-0.07771 0.0317,-0.157283 0.09046,-0.227122 0.117518,-0.139668 0.238511,-0.140164 0.648872,-0.0027 0.172079,0.05765 0.422443,0.122924 0.556369,0.145028 0.235131,0.03883 0.246529,0.03736 0.33165,-0.0426 0.08172,-0.07676 0.116738,-0.08291 0.479574,-0.08402 0.312843,-0.001 0.418384,-0.01457 0.525724,-0.06775 0.253838,-0.125777 0.248351,-0.29766 -0.02519,-0.789258 -0.131303,-0.235969 -0.159651,-0.265545 -0.284704,-0.297007 -0.07639,-0.01922 -0.160477,-0.04886 -0.18687,-0.06588 -0.06791,-0.04377 -0.03406,-0.277632 0.101405,-0.700486 0.197121,-0.615357 0.27934,-1.47576 0.157623,-1.649536 -0.05763,-0.08229 -0.287697,-0.135553 -0.735176,-0.170185 -0.417039,-0.03229 -0.792502,-0.106285 -1.624801,-0.320274 l -0.75124,-0.193158 -0.985626,-0.0306 C 9.6158323,15.05364 9.3567441,15.015333 8.9812028,14.83051 8.6851639,14.684806 8.3003683,14.343088 8.2016445,14.138212 8.1624072,14.056763 8.0979263,13.848624 8.0583583,13.675662 7.946216,13.18539 7.9547908,13.197141 7.54546,12.973038 6.8555475,12.595323 6.691637,12.29597 6.6273771,11.296341 6.587959,10.683046 6.5410035,10.558552 6.1344349,9.9892879 5.7066492,9.3903109 5.6655833,9.2803389 5.6647049,8.7313779 5.6638852,8.2168889 5.7368463,7.9383529 6.0288654,7.3412607 6.2238605,6.9425492 6.3676801,6.7191958 6.7712101,6.1883958 c 0.1501488,-0.1975117 0.273005,-0.3752934 0.273005,-0.395073 0,-0.092366 -0.2803388,0.1432561 -0.8765388,0.7367118 -0.6531201,0.650117 -1.0896982,1.1875823 -1.6619825,2.0460503 -0.7111279,1.066739 -1.3775802,2.6493761 -1.6839464,3.9989061 -0.2004492,0.882954 -0.256337,1.365574 -0.2751501,2.376051 -0.023202,1.246251 0.06211,2.104288 0.3264754,3.283721 0.1637883,0.7307 0.5906286,1.932913 0.9102592,2.563768 0.084167,0.166113 0.088356,0.168969 0.2145359,0.146094 0.3255654,-0.059 3.1717666,-1.075161 3.5590615,-1.270666 0.3129322,-0.157968 0.45373,-0.275149 1.7127218,-1.425443 0.191954,-0.175381 0.3620472,-0.301566 0.4229072,-0.313737 0.0931,-0.01862 0.106646,-0.0083 0.158307,0.120836 0.138315,0.345666 0.2281277,1.008134 0.2446957,1.804755 0.01773,0.852844 0.08971,1.369911 0.323209,2.32197 0.157098,0.640547 0.631734,2.080543 0.803419,2.437493 0.167517,0.348277 0.454775,0.645263 0.699724,0.723411 0.246088,0.07852 0.649246,0.05571 0.85278,-0.04824 z m 1.717283,-6.530897 c -0.06765,-0.04357 0.01051,-0.179111 0.103253,-0.179111 0.05676,0 0.06876,0.01917 0.05992,0.09579 -0.01156,0.09971 -0.0819,0.135657 -0.163167,0.08333 z m -2.311298,-1.071522 c 0,-0.158149 0.09929,-0.35124 0.349969,-0.680632 0.235043,-0.308841 0.294659,-0.363634 0.365897,-0.336298 0.09472,0.03634 0.05652,0.164325 -0.165529,0.554536 -0.303124,0.532698 -0.550337,0.740406 -0.550337,0.462394 z m 12.973499,4.936941 c 0.41752,-0.518664 1.007313,-1.564199 1.342082,-2.379132 1.587814,-3.865213 1.294044,-7.859309 -0.839319,-11.4113541 -0.73651,-1.226291 -1.693259,-2.3058518 -2.97498,-3.3568667 -0.191507,-0.157035 -0.376262,-0.300539 -0.410571,-0.3188994 -0.07332,-0.039253 -0.0726,-0.049569 -0.02992,0.4233218 0.03893,0.431384 0.106451,0.5789289 0.601258,1.3138102 0.21868,0.3247889 0.454888,0.7084541 0.524901,0.8525901 0.601834,1.23897 0.42319,2.4092021 -0.650765,4.2629151 -0.483309,0.834223 -0.512751,0.886729 -0.652394,1.163521 -0.07561,0.149878 -0.247903,0.527251 -0.382865,0.838607 -0.403284,0.930375 -0.676113,1.287818 -1.167681,1.529816 -0.12414,0.06111 -0.242176,0.130958 -0.262303,0.155211 -0.02012,0.02425 -0.05214,0.277717 -0.07114,0.563258 -0.07915,1.189261 -0.106001,1.44763 -0.191908,1.846956 -0.106301,0.494154 -0.09625,0.62743 0.06792,0.900065 0.173884,0.288764 1.210633,1.558314 1.480047,1.812392 0.133511,0.125911 0.349903,0.282112 0.497973,0.359459 0.144022,0.07523 0.615652,0.33314 1.048058,0.573118 0.805981,0.447305 1.885593,1.017882 1.928203,1.019057 0.01306,3.6e-4 0.07767,-0.06616 0.143406,-0.147851 z M 13.9135,22.706957 c 0.05231,-0.01988 0.324565,-0.07595 0.605023,-0.124591 0.718536,-0.124621 0.924615,-0.230724 1.155649,-0.595025 0.131243,-0.206941 0.131768,-0.246225 0.0036,-0.274358 -0.08742,-0.01921 -0.107652,-0.04656 -0.142821,-0.193148 -0.02254,-0.09393 -0.07762,-0.210328 -0.122428,-0.258669 l -0.08145,-0.08789 -0.518241,0.02061 c -0.555942,0.02211 -0.737423,-0.0042 -0.898039,-0.130627 -0.05056,-0.03976 -0.09192,-0.09966 -0.09192,-0.133106 0,-0.08983 0.171573,-0.238259 0.346899,-0.300118 0.185023,-0.06527 0.247292,-0.112908 0.246579,-0.188613 -0.001,-0.109544 -0.06197,-0.159004 -0.185665,-0.150674 -0.09453,0.0063 -0.138511,-0.01291 -0.203086,-0.08881 -0.04533,-0.05331 -0.229317,-0.18141 -0.40884,-0.284662 -0.272867,-0.156938 -0.333605,-0.179866 -0.37025,-0.139772 -0.07417,0.08117 -1.070476,1.464087 -1.088371,1.510726 -0.01705,0.04443 0.548944,0.72071 0.828836,0.990351 0.0839,0.08082 0.254734,0.218233 0.379653,0.305366 0.237158,0.16542 0.360194,0.193203 0.544796,0.123013 z m -1.558113,-1.993538 c 0.93946,-1.135623 0.897007,-1.078804 0.835233,-1.117872 -0.02697,-0.01706 -0.06054,-0.02735 -0.07462,-0.02284 -0.01412,0.0045 -0.410651,0.448437 -0.881296,0.986542 -0.626739,0.716576 -0.83962,0.98162 -0.795557,0.990502 0.0331,0.0066 0.0751,0.02632 0.09336,0.04368 0.01826,0.01736 0.04185,0.03077 0.05241,0.02982 0.01051,-9.21e-4 0.357281,-0.410372 0.770469,-0.909834 z m 3.124755,-0.296389 c 0.05805,-0.05805 0.11019,-0.216033 0.08096,-0.245271 -0.04554,-0.04554 -0.274123,-0.05492 -0.324263,-0.01336 -0.04981,0.04134 -0.0458,0.196799 0.0074,0.287227 0.0273,0.04639 0.179309,0.02792 0.235874,-0.02865 z"
     id="path2" /></svg>
